<svg id="Layer_1" data-name="Layer 1" xmlns="http://www.w3.org/2000/svg" viewBox="0 0 64 64"><title>mirror</title><path d="M16,32a16,16,0,0,0,32,0V20a16,16,0,0,0-32,0Z"/><path d="M53.08,30H53a1,1,0,0,0-1,1V49.29A2.71,2.71,0,0,1,49.29,52H14.71A2.71,2.71,0,0,1,12,49.29V31a1,1,0,0,0-1-1,1,1,0,0,1,0-2h1.64A1.36,1.36,0,0,0,14,26.64V25.36A1.36,1.36,0,0,0,12.64,24h-2.1A2.54,2.54,0,0,0,8,26.54V50.67a6,6,0,0,1-1.77,4.28L4.68,56.5a2.09,2.09,0,0,0-.2,2.8,2,2,0,0,0,2.94.12l2-2A4.76,4.76,0,0,1,12.8,56H51.2a4.76,4.76,0,0,1,3.37,1.4l2,2a2,2,0,0,0,2.94-.12,2.09,2.09,0,0,0-.2-2.8l-1.55-1.55A6,6,0,0,1,56,50.67V26.54A2.54,2.54,0,0,0,53.46,24h-2.1A1.36,1.36,0,0,0,50,25.36v1.28A1.36,1.36,0,0,0,51.36,28h1.73a1,1,0,0,1,0,2Z"/></svg>